<?xml version="1.0" encoding="iso-8859-1"?>
<!-- Generator: Adobe Illustrator 16.0.0, SVG Export Plug-In . SVG Version: 6.00 Build 0)  -->
<!DOCTYPE svg PUBLIC "-//W3C//DTD SVG 1.1//EN" "http://www.w3.org/Graphics/SVG/1.1/DTD/svg11.dtd">
<svg width="580.7236572265625px" height="122.021240234375px" xmlns="http://www.w3.org/2000/svg" viewBox="-40.36182861328126 13.9893798828125 580.7236572265625 122.021240234375" style="background: rgba(0, 0, 0, 0);" preserveAspectRatio="xMidYMid"><defs><filter id="editing-hole" x="-100%" y="-100%" width="300%" height="300%"><feFlood flood-color="#000" result="black"></feFlood><feMorphology operator="dilate" radius="2" in="SourceGraphic" result="erode"></feMorphology><feGaussianBlur in="erode" stdDeviation="4" result="blur"></feGaussianBlur><feOffset in="blur" dx="2" dy="2" result="offset"></feOffset><feComposite operator="atop" in="offset" in2="black" result="merge"></feComposite><feComposite operator="in" in="merge" in2="SourceGraphic" result="inner-shadow"></feComposite></filter></defs><g filter="url(#editing-hole)"><g transform="translate(42.52468729019165, 104.78218841552734)"><path d="M6.21-31.17L6.21-31.17L6.21-31.17Q4.03-32.83 4.03-36.38L4.03-36.38L4.03-36.38Q4.03-39.94 6.37-41.79L6.37-41.79L6.37-41.79Q8.70-43.65 12.74-43.65L12.74-43.65L12.74-43.65Q15.30-43.65 21.38-42.75L21.38-42.75L25.73-42.11L25.73-42.11Q27.90-41.86 30.18-41.86L30.18-41.86L30.18-41.86Q32.45-41.86 33.98-42.82L33.98-42.82L33.98-42.82Q36.29-40.77 36.29-37.82L36.29-37.82L36.29-37.82Q36.29-34.88 33.66-32.77L33.66-32.77L33.66-32.77Q30.98-30.53 27.52-30.53L27.52-30.53L27.52-30.53Q25.86-30.53 23.17-30.98L23.17-30.98L23.17-30.98Q20.03-21.12 20.03-14.27L20.03-14.27L20.03-14.27Q20.03-7.42 23.49-3.84L23.49-3.84L23.49-3.84Q21.89-0.96 19.52 0.16L19.52 0.16L19.52 0.16Q17.15 1.28 13.60 1.28L13.60 1.28L13.60 1.28Q10.05 1.28 7.84-0.67L7.84-0.67L7.84-0.67Q5.63-2.62 5.63-6.66L5.63-6.66L5.63-6.66Q5.63-11.33 8.19-19.01L8.19-19.01L8.19-19.01Q10.75-26.62 14.59-32.45L14.59-32.45L14.59-32.45Q12.74-32.64 10.82-32.64L10.82-32.64L10.82-32.64Q6.85-32.64 6.21-31.17ZM57.22-10.82L57.22-10.82L57.22-10.82Q58.82-9.73 58.82-7.33L58.82-7.33L58.82-7.33Q58.82-4.93 57.60-3.39L57.60-3.39L57.60-3.39Q56.38-1.86 54.40-0.83L54.40-0.83L54.40-0.83Q50.30 1.28 45.89 1.28L45.89 1.28L45.89 1.28Q41.47 1.28 38.88 0.32L38.88 0.32L38.88 0.32Q36.29-0.64 34.56-2.43L34.56-2.43L34.56-2.43Q31.17-5.82 31.17-12.03L31.17-12.03L31.17-12.03Q31.17-21.70 36.42-27.58L36.42-27.58L36.42-27.58Q42.05-33.92 51.84-33.92L51.84-33.92L51.84-33.92Q57.92-33.92 60.93-31.36L60.93-31.36L60.93-31.36Q63.17-29.44 63.17-26.30L63.17-26.30L63.17-26.30Q63.17-15.04 43.71-15.04L43.71-15.04L43.71-15.04Q43.46-13.38 43.46-11.97L43.46-11.97L43.46-11.97Q43.46-9.02 44.77-7.90L44.77-7.90L44.77-7.90Q46.08-6.78 48.51-6.78L48.51-6.78L48.51-6.78Q50.94-6.78 53.54-7.90L53.54-7.90L53.54-7.90Q56.13-9.02 57.22-10.82ZM44.16-17.79L44.16-17.79L44.16-17.79Q48.70-17.79 51.33-20.61L51.33-20.61L51.33-20.61Q53.95-23.30 53.95-27.58L53.95-27.58L53.95-27.58Q53.95-29.06 53.41-29.86L53.41-29.86L53.41-29.86Q52.86-30.66 51.78-30.66L51.78-30.66L51.78-30.66Q50.69-30.66 49.76-30.24L49.76-30.24L49.76-30.24Q48.83-29.82 47.87-28.42L47.87-28.42L47.87-28.42Q45.50-25.22 44.16-17.79ZM106.62 1.28L106.62 1.28L106.62 1.28Q98.43 1.28 97.66-10.37L97.66-10.37L86.66-10.37L86.66-10.37Q85.38-7.42 84.48-4.86L84.48-4.86L82.82 0L73.86 0L94.02-42.24L107.78-42.24L110.46-11.14L110.46-11.14Q111.10-4.42 113.66-2.43L113.66-2.43L113.66-2.43Q111.81 1.28 106.62 1.28ZM92.16-23.17L88.64-15.04L97.47-15.04L96.70-31.49L96.70-33.22L92.16-23.17ZM163.46 1.28L163.46 1.28L163.46 1.28Q155.71 1.28 155.71-4.74L155.71-4.74L155.71-4.74Q155.71-7.36 156.83-12.45L156.83-12.45L156.83-12.45Q157.95-17.54 158.34-19.58L158.34-19.58L158.34-19.58Q159.23-24.26 159.23-25.73L159.23-25.73L159.23-25.73Q159.23-28.99 156.80-28.99L156.80-28.99L156.80-28.99Q155.20-28.99 153.66-26.78L153.66-26.78L153.66-26.78Q152.13-24.58 151.42-20.16L151.42-20.16L147.46 0L134.98 1.28L138.43-16.13L138.43-16.13Q139.01-19.01 139.52-22.27L139.52-22.27L139.52-22.27Q140.03-25.54 140.03-26.05L140.03-26.05L140.03-26.05Q140.03-28.99 137.86-28.99L137.86-28.99L137.86-28.99Q136.38-28.99 134.78-26.82L134.78-26.82L134.78-26.82Q133.18-24.64 132.29-20.16L132.29-20.16L128.38 0L115.78 1.28L122.50-32.64L132.93-33.92L131.84-27.46L131.84-27.46Q133.50-30.91 136.58-32.42L136.58-32.42L136.58-32.42Q139.65-33.92 144.45-33.92L144.45-33.92L144.45-33.92Q147.20-33.92 148.99-32.58L148.99-32.58L148.99-32.58Q150.78-31.23 151.36-29.06L151.36-29.06L151.36-29.06Q152.45-31.30 155.23-32.61L155.23-32.61L155.23-32.61Q158.02-33.92 161.44-33.92L161.44-33.92L161.44-33.92Q164.86-33.92 166.56-33.18L166.56-33.18L166.56-33.18Q168.26-32.45 169.28-31.23L169.28-31.23L169.28-31.23Q171.01-28.99 171.01-24.90L171.01-24.90L171.01-24.90Q171.01-20.86 169.28-12.48L169.28-12.48L169.28-12.48Q168.38-8.38 168.38-6.88L168.38-6.88L168.38-6.88Q168.38-5.38 169.25-4.48L169.25-4.48L169.25-4.48Q170.11-3.58 171.39-3.46L171.39-3.46L171.39-3.46Q170.75-1.28 168.54 0L168.54 0L168.54 0Q166.34 1.28 163.46 1.28ZM190.27 1.28L190.27 1.28L190.27 1.28Q176.19 1.28 176.19-11.97L176.19-11.97L176.19-11.97Q176.19-21.38 181.38-27.46L181.38-27.46L181.38-27.46Q186.88-33.92 196.42-33.92L196.42-33.92L196.42-33.92Q203.33-33.92 206.85-30.72L206.85-30.72L206.85-30.72Q210.37-27.52 210.37-20.80L210.37-20.80L210.37-20.80Q210.37-10.56 204.86-4.61L204.86-4.61L204.86-4.61Q199.49 1.28 190.27 1.28ZM191.94-26.56L191.94-26.56L191.94-26.56Q191.17-24.83 190.56-22.24L190.56-22.24L190.56-22.24Q189.95-19.65 189.18-15.55L189.18-15.55L189.18-15.55Q188.42-11.46 188.42-6.40L188.42-6.40L188.42-6.40Q188.42-4.74 188.96-3.65L188.96-3.65L188.96-3.65Q189.50-2.56 190.98-2.56L190.98-2.56L190.98-2.56Q192.45-2.56 193.38-3.26L193.38-3.26L193.38-3.26Q194.30-3.97 195.01-5.63L195.01-5.63L195.01-5.63Q196.29-8.58 197.31-14.05L197.31-14.05L197.31-14.05Q198.34-19.52 198.43-21.89L198.43-21.89L198.43-21.89Q198.53-24.26 198.53-26.02L198.53-26.02L198.53-26.02Q198.53-27.78 198.02-28.93L198.02-28.93L198.02-28.93Q197.50-30.08 196.06-30.08L196.06-30.08L196.06-30.08Q194.62-30.08 193.66-29.18L193.66-29.18L193.66-29.18Q192.70-28.29 191.94-26.56ZM254.08-9.86L254.08-9.86L254.08-9.86Q255.30-8.32 255.30-5.34L255.30-5.34L255.30-5.34Q255.30-2.37 253.02-0.54L253.02-0.54L253.02-0.54Q250.75 1.28 246.78 1.28L246.78 1.28L246.78 1.28Q244.48 1.28 240.90 0.77L240.90 0.77L240.90 0.77Q233.86-0.32 231.84-0.32L231.84-0.32L231.84-0.32Q229.82-0.32 228.99-0.22L228.99-0.22L228.99-0.22Q228.16-0.13 226.82 0L226.82 0L234.56-42.24L248.58-42.24L242.18-7.04L242.18-7.04Q243.01-6.91 243.78-6.91L243.78-6.91L245.38-6.91L245.38-6.91Q250.75-6.91 254.08-9.86ZM285.50-10.82L285.50-10.82L285.50-10.82Q287.10-9.73 287.10-7.33L287.10-7.33L287.10-7.33Q287.10-4.93 285.89-3.39L285.89-3.39L285.89-3.39Q284.67-1.86 282.69-0.83L282.69-0.83L282.69-0.83Q278.59 1.28 274.18 1.28L274.18 1.28L274.18 1.28Q269.76 1.28 267.17 0.32L267.17 0.32L267.17 0.32Q264.58-0.64 262.85-2.43L262.85-2.43L262.85-2.43Q259.46-5.82 259.46-12.03L259.46-12.03L259.46-12.03Q259.46-21.70 264.70-27.58L264.70-27.58L264.70-27.58Q270.34-33.92 280.13-33.92L280.13-33.92L280.13-33.92Q286.21-33.92 289.22-31.36L289.22-31.36L289.22-31.36Q291.46-29.44 291.46-26.30L291.46-26.30L291.46-26.30Q291.46-15.04 272-15.04L272-15.04L272-15.04Q271.74-13.38 271.74-11.97L271.74-11.97L271.74-11.97Q271.74-9.02 273.06-7.90L273.06-7.90L273.06-7.90Q274.37-6.78 276.80-6.78L276.80-6.78L276.80-6.78Q279.23-6.78 281.82-7.90L281.82-7.90L281.82-7.90Q284.42-9.02 285.50-10.82ZM272.45-17.79L272.45-17.79L272.45-17.79Q276.99-17.79 279.62-20.61L279.62-20.61L279.62-20.61Q282.24-23.30 282.24-27.58L282.24-27.58L282.24-27.58Q282.24-29.06 281.70-29.86L281.70-29.86L281.70-29.86Q281.15-30.66 280.06-30.66L280.06-30.66L280.06-30.66Q278.98-30.66 278.05-30.24L278.05-30.24L278.05-30.24Q277.12-29.82 276.16-28.42L276.16-28.42L276.16-28.42Q273.79-25.22 272.45-17.79ZM313.98-7.23L313.98-7.23L313.98-7.23Q310.66-3.78 304.58-3.78L304.58-3.78L304.58-3.78Q296.96-3.78 295.36-9.34L295.36-9.34L295.36-9.34Q294.85-11.01 294.85-12.86L294.85-12.86L294.85-12.86Q294.85-14.72 295.23-16.64L295.23-16.64L298.24-32.64L311.23-33.92L307.71-15.30L307.71-15.30Q307.58-14.46 307.39-13.57L307.39-13.57L307.39-13.57Q307.20-12.67 307.20-11.74L307.20-11.74L307.20-11.74Q307.20-10.82 307.52-10.21L307.52-10.21L307.52-10.21Q307.84-9.60 308.29-9.22L308.29-9.22L308.29-9.22Q309.06-8.70 310.43-8.70L310.43-8.70L310.43-8.70Q311.81-8.70 312.99-10.37L312.99-10.37L312.99-10.37Q314.18-12.03 314.75-14.91L314.75-14.91L318.27-32.64L330.88-33.92L326.08-8.77L326.08-8.77Q323.71 3.52 318.85 8.38L318.85 8.38L318.85 8.38Q316.35 10.88 313.12 11.87L313.12 11.87L313.12 11.87Q309.89 12.86 305.73 12.86L305.73 12.86L305.73 12.86Q299.01 12.86 295.17 10.75L295.17 10.75L295.17 10.75Q291.33 8.64 291.33 5.12L291.33 5.12L291.33 5.12Q291.33 2.50 293.31 0.99L293.31 0.99L293.31 0.99Q295.30-0.51 298.37-0.51L298.37-0.51L298.37-0.51Q301.06-0.51 303.10 0.64L303.10 0.64L303.10 0.64Q304.32 1.34 304.90 2.24L304.90 2.24L304.90 2.24Q303.42 3.52 303.42 5.63L303.42 5.63L303.42 5.63Q303.42 8.45 305.98 8.45L305.98 8.45L305.98 8.45Q310.21 8.45 312.64-1.28L312.64-1.28L312.64-1.28Q313.34-4.16 313.98-7.23ZM353.34-33.92L353.34-33.92L353.34-33.92Q355.65-33.92 357.44-33.41L357.44-33.41L357.44-33.41Q357.50-33.66 357.63-34.37L357.63-34.37L357.95-36.35L357.95-36.35Q358.21-37.63 358.59-39.74L358.59-39.74L359.62-44.80L372.35-46.08L365.25-8.96L365.25-8.96Q365.18-8.58 365.18-7.94L365.18-7.94L365.18-6.91L365.18-6.91Q365.18-5.50 365.89-4.45L365.89-4.45L365.89-4.45Q366.59-3.39 367.74-3.39L367.74-3.39L367.74-3.39Q366.46-0.38 362.56 0.90L362.56 0.90L362.56 0.90Q361.22 1.28 359.33 1.28L359.33 1.28L359.33 1.28Q357.44 1.28 355.71 0.29L355.71 0.29L355.71 0.29Q353.98-0.70 353.47-2.37L353.47-2.37L353.47-2.37Q352.45-0.70 350.40 0.29L350.40 0.29L350.40 0.29Q348.35 1.28 345.38 1.28L345.38 1.28L345.38 1.28Q342.40 1.28 339.94 0.51L339.94 0.51L339.94 0.51Q337.47-0.26 335.94-1.92L335.94-1.92L335.94-1.92Q333.12-5.18 333.12-12.61L333.12-12.61L333.12-12.61Q333.12-22.21 338.75-28.03L338.75-28.03L338.75-28.03Q344.38-33.92 353.34-33.92ZM352.90-30.08L352.90-30.08L352.90-30.08Q350.53-30.08 349.25-27.52L349.25-27.52L349.25-27.52Q347.97-24.96 346.66-18.62L346.66-18.62L346.66-18.62Q345.34-12.29 345.34-6.59L345.34-6.59L345.34-6.59Q345.34-2.69 347.65-2.69L347.65-2.69L347.65-2.69Q349.70-2.69 351.14-4.74L351.14-4.74L351.14-4.74Q352.58-6.78 353.15-10.18L353.15-10.18L356.61-28.93L356.61-28.93Q355.26-30.08 352.90-30.08ZM388.54-3.52L388.54-3.52L388.54-3.52Q386.56 1.28 380.22 1.28L380.22 1.28L380.22 1.28Q376.96 1.28 374.91-0.96L374.91-0.96L374.91-0.96Q373.18-2.94 373.18-4.93L373.18-4.93L373.18-4.93Q373.18-10.11 375.55-20.22L375.55-20.22L377.92-32.64L390.91-33.92L387.01-13.70L387.01-13.70Q385.92-8.96 385.92-7.30L385.92-7.30L385.92-7.30Q385.92-3.65 388.54-3.52ZM379.07-41.54L379.07-41.54L379.07-41.54Q379.07-44.03 381.15-45.38L381.15-45.38L381.15-45.38Q383.23-46.72 386.24-46.72L386.24-46.72L386.24-46.72Q389.25-46.72 391.07-45.38L391.07-45.38L391.07-45.38Q392.90-44.03 392.90-41.54L392.90-41.54L392.90-41.54Q392.90-39.04 390.88-37.76L390.88-37.76L390.88-37.76Q388.86-36.48 385.86-36.48L385.86-36.48L385.86-36.48Q382.85-36.48 380.96-37.76L380.96-37.76L380.96-37.76Q379.07-39.04 379.07-41.54ZM392.26-3.78L392.26-3.78L392.26-3.78Q392.26-6.21 394.08-7.52L394.08-7.52L394.08-7.52Q395.90-8.83 398.59-8.83L398.59-8.83L398.59-8.83Q401.28-8.83 402.98-7.52L402.98-7.52L402.98-7.52Q404.67-6.21 404.67-3.78L404.67-3.78L404.67-3.78Q404.67-1.34 402.78 0L402.78 0L402.78 0Q400.90 1.34 398.21 1.34L398.21 1.34L398.21 1.34Q395.52 1.34 393.89 0L393.89 0L393.89 0Q392.26-1.34 392.26-3.78ZM395.71-15.81L395.71-15.81L395.71-15.81Q395.71-16.26 395.84-16.90L395.84-16.90L400.83-42.62L400.83-42.62Q403.20-43.52 406.02-43.52L406.02-43.52L406.02-43.52Q408.83-43.52 410.30-41.73L410.30-41.73L410.30-41.73Q411.78-39.94 411.78-37.28L411.78-37.28L411.78-37.28Q411.78-34.62 410.75-31.65L410.75-31.65L410.75-31.65Q409.73-28.67 408.48-25.66L408.48-25.66L408.48-25.66Q407.23-22.66 406.18-19.55L406.18-19.55L406.18-19.55Q405.12-16.45 405.06-13.18L405.06-13.18L405.06-13.18Q403.58-11.52 401.02-11.52L401.02-11.52L401.02-11.52Q398.46-11.52 397.09-12.70L397.09-12.70L397.09-12.70Q395.71-13.89 395.71-15.81Z" fill="#ccc"></path></g></g><style>text {
  font-size: 64px;
  font-family: Arial Black;
  dominant-baseline: central;
  text-anchor: middle;
}</style></svg>